<svg height="496pt" viewBox="0 0 496 496" width="496pt" xmlns="http://www.w3.org/2000/svg" xmlns:xlink="http://www.w3.org/1999/xlink"><linearGradient id="a" gradientUnits="userSpaceOnUse" x1="248" x2="248" y1="496" y2="0"><stop offset="0" stop-color="#9f2fff"/><stop offset="1" stop-color="#0bb1d3"/></linearGradient><path d="m106.34375 437.65625-48-48 11.3125-11.3125 48 48zm131.3125-117.257812 24.398438-24.398438-24.398438-24.398438-11.3125 11.308594 13.089844 13.089844-13.089844 13.089844zm-62.054688-62.054688 11.308594 11.3125 13.089844-13.089844 13.089844 13.089844 11.308594-11.3125-24.398438-24.398438zm-29.257812 29.257812-24.398438 24.398438 24.398438 24.398438 11.3125-11.308594-13.089844-13.089844 13.089844-13.089844zm37.65625 63.832032-13.089844-13.089844-11.308594 11.3125 24.398438 24.398438 24.398438-24.398438-11.308594-11.3125zm16-162.746094 107.3125 107.3125-123.3125 123.3125-107.3125-107.3125zm84.6875 107.3125-84.6875-84.6875-100.6875 100.6875 84.6875 84.6875zm-68.6875 8c0 13.230469-10.769531 24-24 24s-24-10.769531-24-24 10.769531-24 24-24 24 10.769531 24 24zm-16 0c0-4.414062-3.59375-8-8-8s-8 3.585938-8 8 3.59375 8 8 8 8-3.585938 8-8zm-56-304h352v320h-164.6875l-162.34375 162.34375c-8.808594 8.808594-20.511719 13.65625-32.96875 13.65625s-24.167969-4.847656-32.96875-13.65625l-89.375-89.375c-8.679688-8.679688-13.65625-20.695312-13.65625-32.96875s4.976562-24.289062 13.65625-32.96875l130.34375-130.34375zm28.6875 456-132.6875-132.6875-15.03125 15.03125c-5.695312 5.703125-8.96875 13.59375-8.96875 21.65625s3.273438 15.953125 8.96875 21.65625l89.375 89.375c11.566406 11.5625 31.746094 11.5625 43.3125 0zm160-160-132.6875-132.6875-148.6875 148.6875 132.6875 132.6875zm11.214844-11.40625c5.105468-5.609375 8.097656-12.992188 8.097656-20.59375 0-8.175781-3.183594-15.871094-8.96875-21.65625l-89.375-89.375c-5.785156-5.785156-13.480469-8.96875-21.65625-8.96875-7.710938 0-14.9375 2.921875-20.59375 8.097656zm56.097656-188.59375h80v-80h-80zm-240 0h80v-80h-80zm0 84.6875 39.03125-39.03125c8.800781-8.808594 20.511719-13.65625 32.96875-13.65625s24.160156 4.847656 32.96875 13.65625l89.375 89.375c8.808594 8.800781 13.65625 20.511719 13.65625 32.96875 0 12.273438-4.976562 24.289062-13.65625 32.96875l-7.03125 7.03125h132.6875v-192h-96v-96h-128v96h-96zm16-148.6875h48v48h-48zm16 32h16v-16h-16zm224-32h48v48h-48zm16 32h16v-16h-16zm-96 8h-48v-40h-16v56h64zm16 40h16v-88h-64v16h48zm80 32h32v-16h-48v32h16zm32 16h-16v16h-32v16h48zm-176-56h-16v16h16zm32 0h-16v16h16zm-144 40h16v-16h-16zm272 144h16v-48h-48v16h32zm-48-48h-16v48h48v-16h-32zm48-16h16v-16h-16zm-16-16h-16v16h16zm-32 0h-16v16h16zm-48-64h32v48h16v-64h-48zm-16-8h-16v40h48v-16h-32zm0 0" fill="url(#a)"/></svg>